<!DOCTYPE svg PUBLIC "-//W3C//DTD SVG 1.1//EN" "http://www.w3.org/Graphics/SVG/1.1/DTD/svg11.dtd">
<!-- Uploaded to: SVG Repo, www.svgrepo.com, Transformed by: SVG Repo Mixer Tools -->
<svg width="64px" height="64px" viewBox="0 0 24 24" fill="none" xmlns="http://www.w3.org/2000/svg">
<g id="SVGRepo_bgCarrier" stroke-width="0"/>
<g id="SVGRepo_tracerCarrier" stroke-linecap="round" stroke-linejoin="round"/>
<g id="SVGRepo_iconCarrier"> <path d="M17.1929 20.542C17.4797 21.0139 18.0999 21.1704 18.5439 20.8418C20.1928 19.6215 21.4734 17.9597 22.2316 16.0392C23.1125 13.8076 23.2398 11.3492 22.5939 9.03864C21.948 6.72805 20.5644 4.69198 18.6539 3.24071C16.7435 1.78945 14.4109 1.00257 12.0118 1.00001C9.6126 0.997439 7.27838 1.77932 5.36482 3.22649C3.45127 4.67367 2.06331 6.70678 1.41248 9.01598C0.761646 11.3252 0.883624 13.7839 1.75982 16.0173C2.51386 17.9394 3.7909 19.6039 5.43722 20.8278C5.88045 21.1573 6.50098 21.0022 6.78888 20.5308C7.07678 20.0595 6.92571 19.4453 6.48926 19.1069C5.2134 18.1176 4.22219 16.7988 3.62808 15.2844C2.91174 13.4584 2.81202 11.4483 3.34411 9.5604C3.8762 7.67249 5.01093 6.01031 6.57537 4.82717C8.13981 3.64402 10.0482 3.00479 12.0096 3.00689C13.9711 3.00899 15.8781 3.6523 17.44 4.83879C19.0019 6.02528 20.133 7.68989 20.6611 9.57893C21.1891 11.468 21.0851 13.4778 20.3649 15.3023C19.7675 16.8154 18.7735 18.1321 17.4955 19.1187C17.0584 19.4562 16.906 20.0701 17.1929 20.542Z" fill="#00ff1e"/> <path d="M15.0742 17.152C15.3572 17.6263 15.977 17.7869 16.4062 17.4393C17.3285 16.6922 18.0502 15.7189 18.4963 14.6073C19.0673 13.1847 19.1555 11.614 18.7474 10.1364C18.3393 8.65886 17.4575 7.35609 16.2373 6.42818C15.0172 5.50027 13.5262 4.99853 11.9933 5C10.4604 5.00147 8.97036 5.50608 7.752 6.43632C6.53364 7.36657 5.65432 8.67103 5.24906 10.1494C4.8438 11.6277 4.93502 13.1982 5.5087 14.6197C5.957 15.7306 6.68055 16.7024 7.60428 17.4477C8.03409 17.7945 8.65361 17.6327 8.9357 17.1579C9.21778 16.6831 9.0529 16.0755 8.64362 15.7047C8.08735 15.2007 7.64842 14.5749 7.36431 13.8709C6.95462 12.8557 6.88947 11.7341 7.17889 10.6784C7.4683 9.62265 8.09626 8.69108 8.96634 8.02676C9.83642 7.36243 10.9005 7.00207 11.9952 7.00102C13.0899 6.99997 14.1547 7.35829 15.026 8.02094C15.8974 8.6836 16.5271 9.61396 16.8186 10.6691C17.11 11.7243 17.047 12.846 16.6393 13.862C16.3565 14.5665 15.9188 15.1932 15.3635 15.6982C14.9549 16.0698 14.7912 16.6777 15.0742 17.152Z" fill="#00ff1e"/> <path fill-rule="evenodd" clip-rule="evenodd" d="M12 15C13.6569 15 15 13.6569 15 12C15 10.3431 13.6569 9 12 9C10.3431 9 9 10.3431 9 12C9 13.6569 10.3431 15 12 15ZM12 13.0105C11.4419 13.0105 10.9895 12.5581 10.9895 12C10.9895 11.4419 11.4419 10.9895 12 10.9895C12.5581 10.9895 13.0105 11.4419 13.0105 12C13.0105 12.5581 12.5581 13.0105 12 13.0105Z" fill="#00ff1e"/> </g>
</svg>